<svg width="50" height="36" viewBox="0 0 50 36" fill="none" xmlns="http://www.w3.org/2000/svg">
<path d="M33.3333 17.9583C33.3333 16.577 33.8821 15.2522 34.8588 14.2755C35.8356 13.2987 37.1603 12.75 38.5417 12.75C39.923 12.75 41.2478 13.2987 42.2245 14.2755C43.2013 15.2522 43.75 16.577 43.75 17.9583C43.75 19.3397 43.2013 20.6644 42.2245 21.6412C41.2478 22.6179 39.923 23.1667 38.5417 23.1667C37.1603 23.1667 35.8356 22.6179 34.8588 21.6412C33.8821 20.6644 33.3333 19.3397 33.3333 17.9583ZM27.0833 0.25V35.6667H50V0.25H27.0833ZM45.8333 27.3333C43.5417 27.3333 41.6667 29.2083 41.6667 31.5H35.4167C35.4167 30.3949 34.9777 29.3351 34.1963 28.5537C33.4149 27.7723 32.3551 27.3333 31.25 27.3333V8.58333C33.5625 8.58333 35.4167 6.72917 35.4167 4.41667H41.6667C41.6667 5.52174 42.1057 6.58154 42.8871 7.36295C43.6685 8.14435 44.7283 8.58333 45.8333 8.58333V27.3333ZM14.5833 6.5C16.875 6.5 18.75 8.375 18.75 10.6667C18.75 12.9583 16.875 14.8333 14.5833 14.8333C12.2917 14.8333 10.4167 12.9583 10.4167 10.6667C10.4167 8.375 12.2917 6.5 14.5833 6.5ZM14.5833 2.33333C9.97917 2.33333 6.25 6.0625 6.25 10.6667C6.25 15.2708 9.97917 19 14.5833 19C19.1875 19 22.9167 15.2708 22.9167 10.6667C22.9167 6.0625 19.1875 2.33333 14.5833 2.33333ZM14.5833 23.1667C6.52083 23.1667 0 26.8958 0 31.5V35.6667H22.9167V31.5H4.16667C4.16667 30.2917 7.8125 27.3333 14.5833 27.3333C18.3958 27.3333 21.1875 28.2708 22.9167 29.3125V24.6667C20.5625 23.7292 17.7083 23.1667 14.5833 23.1667Z" fill="#7D4B8A"/>
</svg>
