<svg width="45" height="43" viewBox="0 0 45 43" fill="none" xmlns="http://www.w3.org/2000/svg">
<path d="M44.8611 34.111C44.454 29.2207 43.1251 24.4516 40.9444 20.0555C38.8554 16.0829 35.8456 12.6683 32.1666 10.0972L35.5 2.74994C35.6074 2.53036 35.655 2.2863 35.638 2.04243C35.6209 1.79856 35.5398 1.56352 35.4028 1.36105C35.2763 1.18343 35.1099 1.03807 34.9168 0.936734C34.7238 0.835393 34.5096 0.780918 34.2916 0.777714H11.6111C11.3776 0.777136 11.1477 0.835429 10.9428 0.947204C10.7378 1.05898 10.5643 1.22063 10.4383 1.41721C10.3123 1.61379 10.2379 1.83896 10.222 2.07191C10.2061 2.30485 10.2491 2.53804 10.3472 2.74994L13.75 10.1249C10.0979 12.6985 7.10857 16.1019 5.02776 20.0555C2.04164 25.611 1.11109 32.4027 0.86109 37.111C0.820154 37.8003 0.922428 38.4906 1.16147 39.1384C1.40051 39.7862 1.77113 40.3775 2.24998 40.8749C2.75325 41.3638 3.34917 41.747 4.0027 42.0022C4.65623 42.2575 5.35418 42.3794 6.05553 42.361H14.6666V39.6666H5.94442C5.6301 39.6656 5.31921 39.6011 5.03042 39.477C4.74164 39.3529 4.4809 39.1717 4.26387 38.9444C4.04651 38.7188 3.87865 38.4504 3.77103 38.1562C3.6634 37.862 3.61839 37.5486 3.63887 37.236C3.83331 33.611 4.5972 26.7083 7.4722 21.3333C9.49891 17.482 12.4959 14.2266 16.1666 11.8888H17.5555C16.6143 13.1908 15.7472 14.5448 14.9583 15.9444C14.1548 17.4336 13.4721 18.9849 12.9166 20.5833L14.8194 21.861C15.3816 20.2027 16.0735 18.5912 16.8889 17.0416C17.8901 15.2397 19.0276 13.5171 20.2916 11.8888H21.6805C22.6122 14.1157 23.2698 16.4477 23.6389 18.8333C23.9406 20.6042 24.0893 22.3979 24.0833 24.1944L26.2778 22.6527C26.2166 21.2559 26.0682 19.8643 25.8333 18.486C25.4607 16.2335 24.8651 14.0236 24.0555 11.8888H25.1389L26.4028 9.11105H16.3472L13.7778 3.55549H32.125L28.6528 11.1527C29.248 11.4715 29.8189 11.8336 30.3611 12.236C33.7641 14.5838 36.555 17.7128 38.5 21.361C40.4481 25.3613 41.6574 29.6807 42.0694 34.111H44.8611Z" fill="#7D4B8A"/>
</svg>
