<svg width="44" height="26" viewBox="0 0 44 26" fill="none" xmlns="http://www.w3.org/2000/svg">
<path d="M40.75 25.25H3.25C2.42183 25.2479 1.62817 24.918 1.04257 24.3324C0.456965 23.7468 0.127063 22.9532 0.125 22.125V3.375C0.127063 2.54683 0.456965 1.75317 1.04257 1.16757C1.62817 0.581965 2.42183 0.252063 3.25 0.25H40.75C41.5782 0.252063 42.3718 0.581965 42.9574 1.16757C43.543 1.75317 43.8729 2.54683 43.875 3.375V22.125C43.8738 22.9534 43.5441 23.7476 42.9583 24.3333C42.3726 24.9191 41.5784 25.2488 40.75 25.25ZM40.75 3.375H3.25V22.125H40.75V3.375Z" fill="#7D4B8A"/>
</svg>
